<svg xmlns="http://www.w3.org/2000/svg" viewBox="0 0 51.54 33.75"><defs><style>.cls-1{fill:#887b86;}</style></defs><g id="Layer_2" data-name="Layer 2"><g id="Livello_1" data-name="Livello 1"><path class="cls-1" d="M16.16,1.54A1.53,1.53,0,0,0,14.63,0H8A1.53,1.53,0,0,0,6.46,1.54h0V3.28a.57.57,0,0,1,0,.13A4.73,4.73,0,0,1,1.66,7.68H1.53A1.54,1.54,0,0,0,0,9.21H0a1.54,1.54,0,0,0,1.53,1.54h.58A7.61,7.61,0,0,0,9.69,3.16V3.07h3.23V32.14a1.62,1.62,0,0,0,3.24,0V1.62s0,0,0,0,0,0,0,0Z"/><path class="cls-1" d="M8.08,12.28h0a1.62,1.62,0,0,0-1.62,1.61v16.8H1.53a1.53,1.53,0,0,0,0,3.06H8.16a1.52,1.52,0,0,0,1.53-1.53V13.89A1.61,1.61,0,0,0,8.08,12.28Z"/><rect class="cls-1" x="25.85" y="30.69" width="16.16" height="3.06" rx="1.53"/><path class="cls-1" d="M29.25,0h-5.1a1.53,1.53,0,0,0-1.53,1.53h0a1.53,1.53,0,0,0,1.53,1.54H28.6A10.2,10.2,0,0,1,38.77,13.24v1.13A10.21,10.21,0,0,1,28.6,24.55H27a7.61,7.61,0,0,0-7.58,7.55v.12a1.62,1.62,0,0,0,3.23,0,4.87,4.87,0,0,1,4.85-4.6h1.78A12.79,12.79,0,0,0,42,14.86v-2.1A12.79,12.79,0,0,0,29.25,0Z"/><path class="cls-1" d="M24.15,21.48H28a7.61,7.61,0,0,0,7.58-7.59v-.17A7.6,7.6,0,0,0,28,6.14H24.15a1.52,1.52,0,0,0-1.53,1.53h0a1.53,1.53,0,0,0,1.53,1.54H27.5a4.74,4.74,0,0,1,4.79,4.12,4.62,4.62,0,0,1-4.58,5.08H24.15a1.52,1.52,0,0,0-1.53,1.53h0A1.53,1.53,0,0,0,24.15,21.48Z"/><path class="cls-1" d="M46.85.16a4.59,4.59,0,0,0-4.69,4.45,4.7,4.7,0,0,0,9.38,0A4.58,4.58,0,0,0,46.85.16Zm0,6.14a1.73,1.73,0,0,1-1.77-1.69,1.78,1.78,0,0,1,3.55,0A1.73,1.73,0,0,1,46.85,6.3Z"/></g></g></svg>