<?xml version="1.0" encoding="utf-8"?>
<!-- Generator: Adobe Illustrator 25.0.1, SVG Export Plug-In . SVG Version: 6.00 Build 0)  -->
<svg version="1.1" id="Layer_1" xmlns="http://www.w3.org/2000/svg" xmlns:xlink="http://www.w3.org/1999/xlink" x="0px" y="0px"
	 viewBox="0 0 18 18" style="enable-background:new 0 0 18 18;" xml:space="preserve">
<style type="text/css">
	.st0{fill:#887B86;}
</style>
<path class="st0" d="M9,0C4,0,0,4,0,9s4,9,9,9s9-4,9-9S14,0,9,0z M9,17c-4.4,0-8-3.6-8-8s3.6-8,8-8s8,3.6,8,8S13.4,17,9,17z"/>
<path class="st0" d="M5,8C4.8,8.2,4.8,8.5,5,8.7l2.8,2.8c0.2,0.2,0.5,0.2,0.7,0L13,7.1c0.2-0.2,0.2-0.5,0-0.7s-0.5-0.2-0.7,0l-4,4
	L5.7,8C5.5,7.8,5.2,7.8,5,8z"/>
</svg>
